solid base
  facet normal 0 0 0
    outer loop
      vertex -0.095 -0.075 -0.025
      vertex 0.095 0.075 -0.025
      vertex 0.095 -0.075 -0.025
    endloop
  endfacet
  facet normal 0 0 0
    outer loop
      vertex -0.095 -0.075 -0.025
      vertex -0.095 0.075 -0.025
      vertex 0.095 0.075 -0.025
    endloop
  endfacet
  facet normal 0 0 0
    outer loop
      vertex -0.095 -0.075 0.025
      vertex 0.095 -0.075 0.025
      vertex 0.095 0.075 0.025
    endloop
  endfacet
  facet normal 0 0 0
    outer loop
      vertex -0.095 -0.075 0.025
      vertex 0.095 0.075 0.025
      vertex -0.095 0.075 0.025
    endloop
  endfacet
  facet normal 0 0 0
    outer loop
      vertex -0.095 -0.075 -0.025
      vertex 0.095 -0.075 -0.025
      vertex 0.095 -0.075 0.025
    endloop
  endfacet
  facet normal 0 0 0
    outer loop
      vertex -0.095 -0.075 -0.025
      vertex 0.095 -0.075 0.025
      vertex -0.095 -0.075 0.025
    endloop
  endfacet
  facet normal 0 0 0
    outer loop
      vertex -0.095 0.075 -0.025
      vertex -0.095 0.075 0.025
      vertex 0.095 0.075 0.025
    endloop
  endfacet
  facet normal 0 0 0
    outer loop
      vertex -0.095 0.075 -0.025
      vertex 0.095 0.075 0.025
      vertex 0.095 0.075 -0.025
    endloop
  endfacet
  facet normal 0 0 0
    outer loop
      vertex -0.095 -0.075 -0.025
      vertex -0.095 -0.075 0.025
      vertex -0.095 0.075 0.025
    endloop
  endfacet
  facet normal 0 0 0
    outer loop
      vertex -0.095 -0.075 -0.025
      vertex -0.095 0.075 0.025
      vertex -0.095 0.075 -0.025
    endloop
  endfacet
  facet normal 0 0 0
    outer loop
      vertex 0.095 -0.075 -0.025
      vertex 0.095 0.075 -0.025
      vertex 0.095 0.075 0.025
    endloop
  endfacet
  facet normal 0 0 0
    outer loop
      vertex 0.095 -0.075 -0.025
      vertex 0.095 0.075 0.025
      vertex 0.095 -0.075 0.025
    endloop
  endfacet
endsolid base
