solid coxa
  facet normal 0 0 0
    outer loop
      vertex 0 -0.02 -0.02
      vertex 0.043 0.02 -0.02
      vertex 0.043 -0.02 -0.02
    endloop
  endfacet
  facet normal 0 0 0
    outer loop
      vertex 0 -0.02 -0.02
      vertex 0 0.02 -0.02
      vertex 0.043 0.02 -0.02
    endloop
  endfacet
  facet normal 0 0 0
    outer loop
      vertex 0 -0.02 0.02
      vertex 0.043 -0.02 0.02
      vertex 0.043 0.02 0.02
    endloop
  endfacet
  facet normal 0 0 0
    outer loop
      vertex 0 -0.02 0.02
      vertex 0.043 0.02 0.02
      vertex 0 0.02 0.02
    endloop
  endfacet
  facet normal 0 0 0
    outer loop
      vertex 0 -0.02 -0.02
      vertex 0.043 -0.02 -0.02
      vertex 0.043 -0.02 0.02
    endloop
  endfacet
  facet normal 0 0 0
    outer loop
      vertex 0 -0.02 -0.02
      vertex 0.043 -0.02 0.02
      vertex 0 -0.02 0.02
    endloop
  endfacet
  facet normal 0 0 0
    outer loop
      vertex 0 0.02 -0.02
      vertex 0 0.02 0.02
      vertex 0.043 0.02 0.02
    endloop
  endfacet
  facet normal 0 0 0
    outer loop
      vertex 0 0.02 -0.02
      vertex 0.043 0.02 0.02
      vertex 0.043 0.02 -0.02
    endloop
  endfacet
  facet normal 0 0 0
    outer loop
      vertex 0 -0.02 -0.02
      vertex 0 -0.02 0.02
      vertex 0 0.02 0.02
    endloop
  endfacet
  facet normal 0 0 0
    outer loop
      vertex 0 -0.02 -0.02
      vertex 0 0.02 0.02
      vertex 0 0.02 -0.02
    endloop
  endfacet
  facet normal 0 0 0
    outer loop
      vertex 0.043 -0.02 -0.02
      vertex 0.043 0.02 -0.02
      vertex 0.043 0.02 0.02
    endloop
  endfacet
  facet normal 0 0 0
    outer loop
      vertex 0.043 -0.02 -0.02
      vertex 0.043 0.02 0.02
      vertex 0.043 -0.02 0.02
    endloop
  endfacet
endsolid coxa
