solid gimbal
  facet normal 0 0 0
    outer loop
      vertex -0.055 -0.0175 0.0125
      vertex 0.055 0.0175 0.0125
      vertex 0.055 -0.0175 0.0125
    endloop
  endfacet
  facet normal 0 0 0
    outer loop
      vertex -0.055 -0.0175 0.0125
      vertex -0.055 0.0175 0.0125
      vertex 0.055 0.0175 0.0125
    endloop
  endfacet
  facet normal 0 0 0
    outer loop
      vertex -0.055 -0.0175 0.0475
      vertex 0.055 -0.0175 0.0475
      vertex 0.055 0.0175 0.0475
    endloop
  endfacet
  facet normal 0 0 0
    outer loop
      vertex -0.055 -0.0175 0.0475
      vertex 0.055 0.0175 0.0475
      vertex -0.055 0.0175 0.0475
    endloop
  endfacet
  facet normal 0 0 0
    outer loop
      vertex -0.055 -0.0175 0.0125
      vertex 0.055 -0.0175 0.0125
      vertex 0.055 -0.0175 0.0475
    endloop
  endfacet
  facet normal 0 0 0
    outer loop
      vertex -0.055 -0.0175 0.0125
      vertex 0.055 -0.0175 0.0475
      vertex -0.055 -0.0175 0.0475
    endloop
  endfacet
  facet normal 0 0 0
    outer loop
      vertex -0.055 0.0175 0.0125
      vertex -0.055 0.0175 0.0475
      vertex 0.055 0.0175 0.0475
    endloop
  endfacet
  facet normal 0 0 0
    outer loop
      vertex -0.055 0.0175 0.0125
      vertex 0.055 0.0175 0.0475
      vertex 0.055 0.0175 0.0125
    endloop
  endfacet
  facet normal 0 0 0
    outer loop
      vertex -0.055 -0.0175 0.0125
      vertex -0.055 -0.0175 0.0475
      vertex -0.055 0.0175 0.0475
    endloop
  endfacet
  facet normal 0 0 0
    outer loop
      vertex -0.055 -0.0175 0.0125
      vertex -0.055 0.0175 0.0475
      vertex -0.055 0.0175 0.0125
    endloop
  endfacet
  facet normal 0 0 0
    outer loop
      vertex 0.055 -0.0175 0.0125
      vertex 0.055 0.0175 0.0125
      vertex 0.055 0.0175 0.0475
    endloop
  endfacet
  facet normal 0 0 0
    outer loop
      vertex 0.055 -0.0175 0.0125
      vertex 0.055 0.0175 0.0475
      vertex 0.055 -0.0175 0.0475
    endloop
  endfacet
endsolid gimbal
