solid tibia
  facet normal 0 0 0
    outer loop
      vertex 0 0.01 -0.006
      vertex 0.12 0.017 -0.006
      vertex 0.12 0.01 -0.006
    endloop
  endfacet
  facet normal 0 0 0
    outer loop
      vertex 0 0.01 -0.006
      vertex 0 0.017 -0.006
      vertex 0.12 0.017 -0.006
    endloop
  endfacet
  facet normal 0 0 0
    outer loop
      vertex 0 0.01 0.006
      vertex 0.12 0.01 0.006
      vertex 0.12 0.017 0.006
    endloop
  endfacet
  facet normal 0 0 0
    outer loop
      vertex 0 0.01 0.006
      vertex 0.12 0.017 0.006
      vertex 0 0.017 0.006
    endloop
  endfacet
  facet normal 0 0 0
    outer loop
      vertex 0 0.01 -0.006
      vertex 0.12 0.01 -0.006
      vertex 0.12 0.01 0.006
    endloop
  endfacet
  facet normal 0 0 0
    outer loop
      vertex 0 0.01 -0.006
      vertex 0.12 0.01 0.006
      vertex 0 0.01 0.006
    endloop
  endfacet
  facet normal 0 0 0
    outer loop
      vertex 0 0.017 -0.006
      vertex 0 0.017 0.006
      vertex 0.12 0.017 0.006
    endloop
  endfacet
  facet normal 0 0 0
    outer loop
      vertex 0 0.017 -0.006
      vertex 0.12 0.017 0.006
      vertex 0.12 0.017 -0.006
    endloop
  endfacet
  facet normal 0 0 0
    outer loop
      vertex 0 0.01 -0.006
      vertex 0 0.01 0.006
      vertex 0 0.017 0.006
    endloop
  endfacet
  facet normal 0 0 0
    outer loop
      vertex 0 0.01 -0.006
      vertex 0 0.017 0.006
      vertex 0 0.017 -0.006
    endloop
  endfacet
  facet normal 0 0 0
    outer loop
      vertex 0.12 0.01 -0.006
      vertex 0.12 0.017 -0.006
      vertex 0.12 0.017 0.006
    endloop
  endfacet
  facet normal 0 0 0
    outer loop
      vertex 0.12 0.01 -0.006
      vertex 0.12 0.017 0.006
      vertex 0.12 0.01 0.006
    endloop
  endfacet
  facet normal 0 0 0
    outer loop
      vertex 0 -0.017 -0.006
      vertex 0.12 -0.01 -0.006
      vertex 0.12 -0.017 -0.006
    endloop
  endfacet
  facet normal 0 0 0
    outer loop
      vertex 0 -0.017 -0.006
      vertex 0 -0.01 -0.006
      vertex 0.12 -0.01 -0.006
    endloop
  endfacet
  facet normal 0 0 0
    outer loop
      vertex 0 -0.017 0.006
      vertex 0.12 -0.017 0.006
      vertex 0.12 -0.01 0.006
    endloop
  endfacet
  facet normal 0 0 0
    outer loop
      vertex 0 -0.017 0.006
      vertex 0.12 -0.01 0.006
      vertex 0 -0.01 0.006
    endloop
  endfacet
  facet normal 0 0 0
    outer loop
      vertex 0 -0.017 -0.006
      vertex 0.12 -0.017 -0.006
      vertex 0.12 -0.017 0.006
    endloop
  endfacet
  facet normal 0 0 0
    outer loop
      vertex 0 -0.017 -0.006
      vertex 0.12 -0.017 0.006
      vertex 0 -0.017 0.006
    endloop
  endfacet
  facet normal 0 0 0
    outer loop
      vertex 0 -0.01 -0.006
      vertex 0 -0.01 0.006
      vertex 0.12 -0.01 0.006
    endloop
  endfacet
  facet normal 0 0 0
    outer loop
      vertex 0 -0.01 -0.006
      vertex 0.12 -0.01 0.006
      vertex 0.12 -0.01 -0.006
    endloop
  endfacet
  facet normal 0 0 0
    outer loop
      vertex 0 -0.017 -0.006
      vertex 0 -0.017 0.006
      vertex 0 -0.01 0.006
    endloop
  endfacet
  facet normal 0 0 0
    outer loop
      vertex 0 -0.017 -0.006
      vertex 0 -0.01 0.006
      vertex 0 -0.01 -0.006
    endloop
  endfacet
  facet normal 0 0 0
    outer loop
      vertex 0.12 -0.017 -0.006
      vertex 0.12 -0.01 -0.006
      vertex 0.12 -0.01 0.006
    endloop
  endfacet
  facet normal 0 0 0
    outer loop
      vertex 0.12 -0.017 -0.006
      vertex 0.12 -0.01 0.006
      vertex 0.12 -0.017 0.006
    endloop
  endfacet
endsolid tibia
